HIERARCHY
ROOT Hips
{
	OFFSET 0.000000 8.830580 0.000000
	CHANNELS 6 Xposition Yposition Zposition Zrotation Yrotation Xrotation 
	JOINT Spine
	{
		OFFSET 0.000000 0.010000 0.000000
		CHANNELS 3 Zrotation Yrotation Xrotation
		JOINT Spine1
		{
			OFFSET 0.000000 2.459130 0.000000
			CHANNELS 3 Zrotation Yrotation Xrotation
			JOINT Neck
			{
				OFFSET 0.000000 2.484630 0.000000
				CHANNELS 3 Zrotation Yrotation Xrotation
				JOINT Head_virtual
				{
					OFFSET 0.000000 0.000000 0.000000
					CHANNELS 3 Zrotation Yrotation Xrotation
					JOINT Head
					{
						OFFSET 0.000000 0.927525 0.000000
						CHANNELS 3 Zrotation Yrotation Xrotation
						End Site
						{
							OFFSET 0.000000 0.000000 0.000000
						}
					}
				}
				JOINT LeftUpArm_virtual
				{
					OFFSET 0.000000 0.000000 0.000000
					CHANNELS 3 Zrotation Yrotation Xrotation
					JOINT LeftUpArm
					{
						OFFSET 1.248820 0.000000 0.000000
						CHANNELS 3 Zrotation Yrotation Xrotation
						JOINT LeftForeArm
						{
							OFFSET 2.597580 0.000000 0.000000
							CHANNELS 3 Zrotation Yrotation Xrotation
							JOINT LeftHand
							{
								OFFSET 2.455420 0.000000 0.000000
								CHANNELS 3 Zrotation Yrotation Xrotation
								End Site
								{
									OFFSET 0.000000 0.000000 0.000000
								}
							}
						}
					}
				}
				JOINT RightUpArm_virtual
				{
					OFFSET -0.000000 -0.000000 -0.000000
					CHANNELS 3 Zrotation Yrotation Xrotation
					JOINT RightUpArm
					{
						OFFSET -1.248820 -0.000000 -0.000000
						CHANNELS 3 Zrotation Yrotation Xrotation
						JOINT RightForeArm
						{
							OFFSET -2.597580 -0.000000 -0.000000
							CHANNELS 3 Zrotation Yrotation Xrotation
							JOINT RightHand
							{
								OFFSET -2.455420 -0.000000 -0.000000
								CHANNELS 3 Zrotation Yrotation Xrotation
								End Site
								{
									OFFSET 0.000000 0.000000 0.000000
								}
							}
						}
					}
				}
			}
		}
	}
	JOINT LeftUpLeg
	{
		OFFSET 1.271939 0.000000 0.000000
		CHANNELS 3 Zrotation Yrotation Xrotation
		JOINT LeftLowLeg
		{
			OFFSET 0.000000 -4.342910 0.000000
			CHANNELS 3 Zrotation Yrotation Xrotation
			JOINT LeftFoot
			{
				OFFSET 0.000000 -4.487670 0.000000
				CHANNELS 3 Zrotation Yrotation Xrotation
				JOINT LeftToeBase
				{
					OFFSET 0.000000 0.000000 1.515070
					CHANNELS 3 Zrotation Yrotation Xrotation
					End Site
					{
						OFFSET 0.000000 0.000000 0.000000
					}
				}
			}
		}
	}
	JOINT RightUpLeg
	{
		OFFSET -1.271939 0.000000 0.000000
		CHANNELS 3 Zrotation Yrotation Xrotation
		JOINT RightLowLeg
		{
			OFFSET 0.000000 -4.342910 0.000000
			CHANNELS 3 Zrotation Yrotation Xrotation
			JOINT RightFoot
			{
				OFFSET 0.000000 -4.487670 0.000000
				CHANNELS 3 Zrotation Yrotation Xrotation
				JOINT RightToeBase
				{
					OFFSET 0.000000 0.000000 1.515070
					CHANNELS 3 Zrotation Yrotation Xrotation
					End Site
					{
						OFFSET 0.000000 0.000000 0.000000
					}
				}
			}
		}
	}
}
MOTION
Frames: 13
Frame Time: 0.041667
-18.870459 9.258134 29.591897 -15.361069 -65.906587 15.346672 7.724069 -2.760314 -10.070706 6.696847 -3.266448 14.367643 0.000000 0.000000 0.000000 -4.641493 3.064170 -7.074252 -8.691896 4.633635 -50.474422 -14.555600 -3.136660 5.446150 -53.584702 -20.830000 58.911999 180.000000 -73.330002 -180.000000 -1.670510 11.845300 -13.660300 17.625999 2.823690 5.543670 62.044300 48.317402 34.500198 -180.000000 36.222000 180.000000 -37.407200 -15.276900 -8.932040 4.775636 -10.215597 -4.967735 0.000000 0.000000 45.068100 10.795540 -27.429445 6.811096 0.000000 0.000000 -51.126202 4.754374 5.838154 -10.184283 0.000000 0.000000 12.374100 11.856524 1.754985 15.038413 0.000000 0.000000 -30.065200 
-18.964066 9.260145 29.580846 -14.809251 -64.517991 14.846379 7.898918 -3.086102 -10.137657 7.011975 -3.613609 14.290715 0.000000 0.000000 0.000000 -4.581257 3.095351 -7.446406 -9.010897 4.743200 -50.617224 -14.612000 -3.475200 5.665810 -53.247898 -21.236099 59.095001 -180.000000 -72.646004 180.000000 -2.068520 11.652400 -13.634600 17.686501 2.930740 5.423060 61.976601 48.457199 34.135799 -180.000000 35.983994 -180.000000 -37.267799 -15.936200 -8.326520 5.721181 -9.095879 -7.218607 0.000000 0.000000 48.860298 5.378968 -28.732135 10.186548 0.000000 0.000000 -50.311001 5.066755 5.932067 -9.215514 0.000000 0.000000 11.620500 12.153366 0.905139 14.576645 0.000000 0.000000 -29.747700 
-19.054647 9.263130 29.572259 -14.070576 -63.133417 14.077579 7.967488 -3.426588 -10.253128 7.242884 -3.972131 14.512122 0.000000 0.000000 0.000000 -4.353763 3.035302 -7.867207 -9.386712 4.870445 -50.837413 -14.763600 -3.793470 5.817460 -52.806198 -21.781900 59.140099 -180.000000 -72.242996 -180.000000 -3.094830 11.440500 -13.151000 17.851900 3.143060 5.075190 61.702702 48.424801 33.600399 180.000000 35.723007 -180.000000 -36.626202 -16.513000 -8.494130 6.366741 -8.110793 -9.231648 0.000000 0.000000 52.369701 0.985062 -28.926456 13.348775 0.000000 0.000000 -49.048100 5.339964 5.772438 -8.161123 0.000000 0.000000 10.905900 12.442979 0.082606 13.988265 0.000000 0.000000 -29.551100 
-19.141742 9.268403 29.567235 -13.294010 -61.915009 13.107681 7.867125 -3.705609 -10.256274 7.598411 -4.239845 14.957586 0.000000 0.000000 0.000000 -4.186553 2.965653 -8.497234 -9.539556 4.904154 -50.891615 -14.965400 -4.105900 5.865150 -52.519901 -22.379999 59.289799 -180.000000 -72.207001 180.000000 -4.625980 11.106400 -13.582700 17.975901 3.253860 4.759450 61.486401 48.553398 33.413200 180.000000 35.651993 180.000000 -36.479900 -16.513500 -9.439900 6.740213 -7.072787 -10.863559 0.000000 0.000000 55.538399 -1.796277 -28.070085 15.603187 0.000000 0.000000 -47.095299 5.597357 4.996743 -6.984515 0.000000 0.000000 10.278500 12.311706 -0.277164 13.451740 0.000000 0.000000 -29.014300 
-19.225828 9.275945 29.563601 -12.513709 -60.834737 12.144061 7.640851 -3.977440 -10.255968 8.011519 -4.466771 15.450394 0.000000 0.000000 0.000000 -4.088156 2.925275 -9.161533 -9.508567 4.919399 -50.740631 -15.141900 -4.350890 5.792910 -52.387299 -22.877399 59.562500 -180.000000 -72.438004 180.000000 -5.107180 10.872400 -11.494600 18.138500 3.565390 4.695830 61.033600 48.633999 32.665798 -180.000000 35.393997 -180.000000 -36.125401 -16.769199 -9.456810 6.898197 -5.727031 -12.201835 0.000000 0.000000 58.281200 -2.051547 -25.368463 15.847179 0.000000 0.000000 -45.092501 5.793492 3.924644 -5.846358 0.000000 0.000000 9.651920 12.142765 -0.330417 13.074401 0.000000 0.000000 -28.776600 
-19.307327 9.285751 29.560912 -11.714628 -59.925228 11.282833 7.302444 -4.088924 -10.355148 8.504017 -4.502164 15.961058 0.000000 0.000000 0.000000 -4.069034 2.872404 -9.685789 -9.259685 4.802751 -50.638212 -15.226600 -4.776710 5.706840 -52.471600 -23.202101 59.904400 180.000000 -72.792000 -180.000000 -5.340280 10.616800 -13.740300 18.293200 3.677520 4.732860 60.714199 48.767601 31.988701 180.000000 35.209000 180.000000 -35.798401 -16.895100 -9.292430 6.888403 -3.926132 -13.359231 0.000000 0.000000 60.486599 0.742905 -19.169945 13.291230 0.000000 0.000000 -43.693800 5.891423 2.821772 -4.822451 0.000000 0.000000 8.959860 11.965780 -0.230929 12.860056 0.000000 0.000000 -28.666800 
-19.386364 9.297819 29.559803 -10.829806 -59.200251 10.271026 6.883769 -4.147566 -10.275501 8.926437 -4.464017 16.384499 0.000000 0.000000 0.000000 -4.075930 2.832032 -10.106272 -9.135494 4.701883 -50.611355 -15.232300 -5.077080 5.329460 -52.760799 -23.159000 60.523399 180.000000 -73.108002 180.000000 -5.304570 10.460900 -17.166599 18.356701 3.791150 4.685500 60.923698 48.660999 31.940599 180.000000 35.067993 -180.000000 -35.856201 -16.868999 -9.234480 6.701272 -1.694404 -14.117401 0.000000 0.000000 61.668201 4.071063 -11.857115 11.209484 0.000000 0.000000 -42.248400 5.886305 1.809876 -3.784981 0.000000 0.000000 8.354180 11.616729 -0.168270 12.683616 0.000000 0.000000 -28.616000 
-19.462861 9.310498 29.559942 -9.876067 -58.570889 9.366035 6.468227 -4.212325 -10.272349 9.225042 -4.430557 16.730761 0.000000 0.000000 0.000000 -4.425957 2.985475 -10.481024 -8.910653 4.589389 -50.524323 -15.293000 -4.934920 5.300140 -52.904598 -23.483700 60.943401 180.000000 -73.238998 -180.000000 -5.216860 10.313100 -18.228901 18.344200 3.881710 4.745340 61.657299 48.541401 32.436298 180.000000 35.048004 180.000000 -35.830601 -16.957899 -9.156630 6.457881 0.430197 -14.843228 0.000000 0.000000 61.758499 7.871864 -5.491923 10.525281 0.000000 0.000000 -41.391199 5.799981 0.967803 -2.926848 0.000000 0.000000 7.720960 11.196746 -0.225467 12.565239 0.000000 0.000000 -28.551100 
-19.535567 9.321071 29.564951 -8.881528 -57.932821 8.422490 6.141808 -4.355435 -10.194955 9.254403 -4.493094 16.888853 0.000000 0.000000 0.000000 -4.803008 3.227466 -10.561752 -8.771289 4.591240 -50.494062 -15.246500 -4.692070 5.254950 -53.035000 -23.484200 61.190300 180.000000 -73.117996 180.000000 -4.846910 10.252600 -18.311399 18.248301 4.315570 4.697470 62.596199 48.046001 33.125900 -180.000000 35.005997 -180.000000 -35.780201 -16.994801 -9.025980 6.161874 1.984309 -15.325415 0.000000 0.000000 60.794601 11.839684 -0.863046 10.594046 0.000000 0.000000 -40.642799 5.668605 0.545368 -2.142757 0.000000 0.000000 7.241580 10.732682 -0.751476 12.276342 0.000000 0.000000 -28.363700 
-19.604726 9.328816 29.571144 -8.011160 -57.293082 7.688135 5.914910 -4.389670 -9.980445 9.210656 -4.439508 16.606262 0.000000 0.000000 0.000000 -4.899290 3.291809 -10.330820 -8.807079 4.611062 -50.553457 -15.307200 -4.494920 5.489620 -52.911800 -23.455400 61.287800 -180.000000 -72.809998 180.000000 -4.572360 10.195100 -18.398300 18.272699 4.541030 5.080950 63.361000 47.855801 33.841301 180.000000 35.026001 180.000000 -36.144402 -16.819300 -8.774470 5.960652 2.745193 -15.703686 0.000000 0.000000 58.995899 13.877456 1.749735 10.712484 0.000000 0.000000 -39.871099 5.579859 0.150567 -1.545065 0.000000 0.000000 6.881470 10.216172 -1.332137 12.061779 0.000000 0.000000 -28.436600 
-19.672282 9.333226 29.581533 -7.279552 -56.581704 7.160698 5.843320 -4.272608 -9.864478 8.999436 -4.284450 16.290988 0.000000 0.000000 0.000000 -4.588779 3.155323 -10.076099 -9.012885 4.718252 -50.594340 -15.267100 -4.460040 5.638630 -52.823101 -23.280100 61.453602 180.000000 -72.472000 180.000000 -4.111000 10.257700 -18.338499 18.381001 4.480740 5.305060 63.905300 47.624599 34.658501 180.000000 35.179001 180.000000 -36.610001 -16.176800 -8.289270 5.863901 2.878696 -15.967987 0.000000 0.000000 56.467400 14.121882 2.794870 10.236107 0.000000 0.000000 -39.960899 5.547503 -0.259002 -1.060121 0.000000 0.000000 6.565700 9.438669 -2.010800 11.764678 0.000000 0.000000 -27.729600 
-19.736879 9.333981 29.594804 -6.675552 -55.907425 6.799728 5.976804 -3.974237 -9.972916 8.439193 -4.055453 16.294634 0.000000 0.000000 0.000000 -4.047565 2.984887 -10.031700 -9.365180 5.010370 -50.447050 -15.013100 -4.508850 5.564410 -52.734798 -23.141001 61.650600 180.000000 -72.230003 180.000000 -3.772040 10.153300 -18.270201 18.571501 4.431820 5.620720 64.148697 47.723598 34.852501 -180.000000 35.093994 -180.000000 -36.755100 -16.218000 -8.102120 5.830989 2.823545 -16.154748 0.000000 0.000000 53.404099 14.689593 2.764749 9.492391 0.000000 0.000000 -40.090900 5.539749 -0.295199 -0.675171 0.000000 0.000000 6.335390 9.110417 -2.819081 11.385823 0.000000 0.000000 -27.544000 
-19.799200 9.332242 29.609656 -6.302408 -55.200269 6.708072 5.888025 -3.956552 -9.869306 8.677013 -3.960047 15.862768 0.000000 0.000000 0.000000 -4.404642 3.090770 -9.852712 -9.399832 4.946051 -50.269718 -15.261800 -4.195900 5.538670 -52.601601 -22.902901 61.797501 180.000000 -72.001999 -180.000000 -3.148530 10.206500 -17.863899 18.318899 4.461750 5.890960 64.467903 47.733101 35.386299 -180.000000 35.164001 -180.000000 -37.062302 -15.778300 -7.706780 5.955505 2.628931 -16.325663 0.000000 0.000000 49.895000 14.348964 1.763479 8.612930 0.000000 0.000000 -40.033400 5.616519 -0.416430 -0.371281 0.000000 0.000000 6.135220 8.717445 -3.498210 10.963601 0.000000 0.000000 -27.321100 
